<svg id="visual" viewBox="0 0 960 540" width="960" height="540" xmlns="http://www.w3.org/2000/svg" xmlns:xlink="http://www.w3.org/1999/xlink" version="1.1"><rect x="0" y="0" width="960" height="540" fill="#4831d4"></rect><defs><linearGradient id="grad1_0" x1="43.8%" y1="100%" x2="100%" y2="0%"><stop offset="14.444444444444446%" stop-color="#4831d4" stop-opacity="1"></stop><stop offset="85.55555555555554%" stop-color="#4831d4" stop-opacity="1"></stop></linearGradient></defs><defs><linearGradient id="grad2_0" x1="0%" y1="100%" x2="56.3%" y2="0%"><stop offset="14.444444444444446%" stop-color="#4831d4" stop-opacity="1"></stop><stop offset="85.55555555555554%" stop-color="#4831d4" stop-opacity="1"></stop></linearGradient></defs><g transform="translate(960, 540)"><path d="M-351 0C-330.4 -18.7 -309.8 -37.5 -291.5 -51.4C-273.2 -65.3 -257.2 -74.4 -264.1 -96.1C-270.9 -117.8 -300.5 -152.1 -304 -175.5C-307.4 -198.9 -284.8 -211.3 -262.8 -220.5C-240.7 -229.7 -219.4 -235.7 -198 -235.9C-176.6 -236.2 -155.2 -230.6 -143.5 -248.5C-131.8 -266.5 -129.9 -307.9 -115.9 -318.6C-102 -329.2 -75.9 -309 -54.5 -309.2C-33.2 -309.5 -16.6 -330.2 0 -351L0 0Z" fill="#ccf381"></path></g><g transform="translate(0, 0)"><path d="M351 0C333.9 18.2 316.7 36.4 308.2 54.4C299.8 72.3 300 90.1 297.9 108.4C295.7 126.8 291.2 145.7 285.8 165C280.4 184.3 274.1 203.8 264.3 221.8C254.5 239.7 241.3 256.2 225.6 268.9C210 281.6 191.9 290.6 173.5 300.5C155.1 310.4 136.4 321.1 115.9 318.6C95.4 316 73.1 300.1 53.5 303.3C33.9 306.5 16.9 328.8 0 351L0 0Z" fill="#ccf381"></path></g></svg>