<svg id="visual" viewBox="0 0 675 900" width="675" height="900" xmlns="http://www.w3.org/2000/svg" xmlns:xlink="http://www.w3.org/1999/xlink" version="1.1"><rect x="0" y="0" width="675" height="900" fill="#4831d4"></rect><path d="M136 0L112 0L112 47L27 47L27 95L185 95L185 142L59 142L59 189L161 189L161 237L108 237L108 284L41 284L41 332L170 332L170 379L192 379L192 426L57 426L57 474L103 474L103 521L115 521L115 568L96 568L96 616L147 616L147 663L125 663L125 711L156 711L156 758L64 758L64 805L149 805L149 853L187 853L187 900L0 900L0 853L0 853L0 805L0 805L0 758L0 758L0 711L0 711L0 663L0 663L0 616L0 616L0 568L0 568L0 521L0 521L0 474L0 474L0 426L0 426L0 379L0 379L0 332L0 332L0 284L0 284L0 237L0 237L0 189L0 189L0 142L0 142L0 95L0 95L0 47L0 47L0 0L0 0Z" fill="#afda60"></path><path d="M29 0L40 0L40 47L158 47L158 95L142 95L142 142L109 142L109 189L79 189L79 237L140 237L140 284L25 284L25 332L107 332L107 379L90 379L90 426L108 426L108 474L31 474L31 521L68 521L68 568L115 568L115 616L124 616L124 663L84 663L84 711L175 711L175 758L152 758L152 805L160 805L160 853L149 853L149 900L0 900L0 853L0 853L0 805L0 805L0 758L0 758L0 711L0 711L0 663L0 663L0 616L0 616L0 568L0 568L0 521L0 521L0 474L0 474L0 426L0 426L0 379L0 379L0 332L0 332L0 284L0 284L0 237L0 237L0 189L0 189L0 142L0 142L0 95L0 95L0 47L0 47L0 0L0 0Z" fill="#bde671"></path><path d="M28 0L26 0L26 47L152 47L152 95L50 95L50 142L77 142L77 189L50 189L50 237L161 237L161 284L125 284L125 332L149 332L149 379L71 379L71 426L83 426L83 474L132 474L132 521L47 521L47 568L154 568L154 616L148 616L148 663L89 663L89 711L29 711L29 758L136 758L136 805L31 805L31 853L139 853L139 900L0 900L0 853L0 853L0 805L0 805L0 758L0 758L0 711L0 711L0 663L0 663L0 616L0 616L0 568L0 568L0 521L0 521L0 474L0 474L0 426L0 426L0 379L0 379L0 332L0 332L0 284L0 284L0 237L0 237L0 189L0 189L0 142L0 142L0 95L0 95L0 47L0 47L0 0L0 0Z" fill="#ccf381"></path><path d="M70 0L107 0L107 47L25 47L25 95L51 95L51 142L37 142L37 189L85 189L85 237L139 237L139 284L37 284L37 332L106 332L106 379L104 379L104 426L63 426L63 474L41 474L41 521L29 521L29 568L140 568L140 616L36 616L36 663L56 663L56 711L23 711L23 758L108 758L108 805L94 805L94 853L140 853L140 900L0 900L0 853L0 853L0 805L0 805L0 758L0 758L0 711L0 711L0 663L0 663L0 616L0 616L0 568L0 568L0 521L0 521L0 474L0 474L0 426L0 426L0 379L0 379L0 332L0 332L0 284L0 284L0 237L0 237L0 189L0 189L0 142L0 142L0 95L0 95L0 47L0 47L0 0L0 0Z" fill="#d5f595"></path><path d="M43 0L106 0L106 47L113 47L113 95L80 95L80 142L77 142L77 189L26 189L26 237L46 237L46 284L27 284L27 332L20 332L20 379L129 379L129 426L47 426L47 474L22 474L22 521L117 521L117 568L112 568L112 616L101 616L101 663L19 663L19 711L37 711L37 758L73 758L73 805L29 805L29 853L104 853L104 900L0 900L0 853L0 853L0 805L0 805L0 758L0 758L0 711L0 711L0 663L0 663L0 616L0 616L0 568L0 568L0 521L0 521L0 474L0 474L0 426L0 426L0 379L0 379L0 332L0 332L0 284L0 284L0 237L0 237L0 189L0 189L0 142L0 142L0 95L0 95L0 47L0 47L0 0L0 0Z" fill="#def7a9"></path><path d="M91 0L35 0L35 47L88 47L88 95L91 95L91 142L59 142L59 189L58 189L58 237L106 237L106 284L68 284L68 332L17 332L17 379L76 379L76 426L86 426L86 474L42 474L42 521L66 521L66 568L65 568L65 616L28 616L28 663L111 663L111 711L47 711L47 758L69 758L69 805L56 805L56 853L105 853L105 900L0 900L0 853L0 853L0 805L0 805L0 758L0 758L0 711L0 711L0 663L0 663L0 616L0 616L0 568L0 568L0 521L0 521L0 474L0 474L0 426L0 426L0 379L0 379L0 332L0 332L0 284L0 284L0 237L0 237L0 189L0 189L0 142L0 142L0 95L0 95L0 47L0 47L0 0L0 0Z" fill="#def7a9"></path><path d="M78 0L70 0L70 47L67 47L67 95L82 95L82 142L57 142L57 189L33 189L33 237L85 237L85 284L22 284L22 332L56 332L56 379L13 379L13 426L43 426L43 474L39 474L39 521L59 521L59 568L43 568L43 616L18 616L18 663L41 663L41 711L75 711L75 758L20 758L20 805L87 805L87 853L74 853L74 900L0 900L0 853L0 853L0 805L0 805L0 758L0 758L0 711L0 711L0 663L0 663L0 616L0 616L0 568L0 568L0 521L0 521L0 474L0 474L0 426L0 426L0 379L0 379L0 332L0 332L0 284L0 284L0 237L0 237L0 189L0 189L0 142L0 142L0 95L0 95L0 47L0 47L0 0L0 0Z" fill="#def7a9"></path><path d="M70 0L20 0L20 47L12 47L12 95L18 95L18 142L71 142L71 189L35 189L35 237L21 237L21 284L52 284L52 332L69 332L69 379L50 379L50 426L51 426L51 474L14 474L14 521L32 521L32 568L40 568L40 616L69 616L69 663L79 663L79 711L64 711L64 758L32 758L32 805L66 805L66 853L26 853L26 900L0 900L0 853L0 853L0 805L0 805L0 758L0 758L0 711L0 711L0 663L0 663L0 616L0 616L0 568L0 568L0 521L0 521L0 474L0 474L0 426L0 426L0 379L0 379L0 332L0 332L0 284L0 284L0 237L0 237L0 189L0 189L0 142L0 142L0 95L0 95L0 47L0 47L0 0L0 0Z" fill="#d5f595"></path><path d="M28 0L57 0L57 47L55 47L55 95L9 95L9 142L40 142L40 189L36 189L36 237L51 237L51 284L36 284L36 332L30 332L30 379L19 379L19 426L38 426L38 474L15 474L15 521L23 521L23 568L26 568L26 616L65 616L65 663L18 663L18 711L14 711L14 758L21 758L21 805L20 805L20 853L9 853L9 900L0 900L0 853L0 853L0 805L0 805L0 758L0 758L0 711L0 711L0 663L0 663L0 616L0 616L0 568L0 568L0 521L0 521L0 474L0 474L0 426L0 426L0 379L0 379L0 332L0 332L0 284L0 284L0 237L0 237L0 189L0 189L0 142L0 142L0 95L0 95L0 47L0 47L0 0L0 0Z" fill="#ccf381"></path><path d="M10 0L40 0L40 47L12 47L12 95L38 95L38 142L15 142L15 189L16 189L16 237L39 237L39 284L38 284L38 332L35 332L35 379L34 379L34 426L28 426L28 474L49 474L49 521L37 521L37 568L42 568L42 616L46 616L46 663L39 663L39 711L16 711L16 758L33 758L33 805L31 805L31 853L46 853L46 900L0 900L0 853L0 853L0 805L0 805L0 758L0 758L0 711L0 711L0 663L0 663L0 616L0 616L0 568L0 568L0 521L0 521L0 474L0 474L0 426L0 426L0 379L0 379L0 332L0 332L0 284L0 284L0 237L0 237L0 189L0 189L0 142L0 142L0 95L0 95L0 47L0 47L0 0L0 0Z" fill="#bde671"></path><path d="M12 0L32 0L32 47L21 47L21 95L26 95L26 142L19 142L19 189L26 189L26 237L22 237L22 284L5 284L5 332L31 332L31 379L27 379L27 426L9 426L9 474L32 474L32 521L19 521L19 568L28 568L28 616L13 616L13 663L32 663L32 711L4 711L4 758L3 758L3 805L21 805L21 853L7 853L7 900L0 900L0 853L0 853L0 805L0 805L0 758L0 758L0 711L0 711L0 663L0 663L0 616L0 616L0 568L0 568L0 521L0 521L0 474L0 474L0 426L0 426L0 379L0 379L0 332L0 332L0 284L0 284L0 237L0 237L0 189L0 189L0 142L0 142L0 95L0 95L0 47L0 47L0 0L0 0Z" fill="#afda60"></path></svg>