<svg id="visual" viewBox="0 0 900 600" width="900" height="600" xmlns="http://www.w3.org/2000/svg" xmlns:xlink="http://www.w3.org/1999/xlink" version="1.1"><rect x="0" y="0" width="900" height="600" fill="#4831d4"></rect><path d="M180 0L149 0L149 32L36 32L36 63L246 63L246 95L79 95L79 126L214 126L214 158L143 158L143 189L55 189L55 221L226 221L226 253L256 253L256 284L76 284L76 316L137 316L137 347L153 347L153 379L128 379L128 411L196 411L196 442L166 442L166 474L207 474L207 505L86 505L86 537L198 537L198 568L249 568L249 600L0 600L0 568L0 568L0 537L0 537L0 505L0 505L0 474L0 474L0 442L0 442L0 411L0 411L0 379L0 379L0 347L0 347L0 316L0 316L0 284L0 284L0 253L0 253L0 221L0 221L0 189L0 189L0 158L0 158L0 126L0 126L0 95L0 95L0 63L0 63L0 32L0 32L0 0L0 0Z" fill="#afda60"></path><path d="M38 0L53 0L53 32L210 32L210 63L190 63L190 95L145 95L145 126L105 126L105 158L186 158L186 189L33 189L33 221L143 221L143 253L120 253L120 284L144 284L144 316L41 316L41 347L91 347L91 379L153 379L153 411L165 411L165 442L112 442L112 474L233 474L233 505L203 505L203 537L213 537L213 568L198 568L198 600L0 600L0 568L0 568L0 537L0 537L0 505L0 505L0 474L0 474L0 442L0 442L0 411L0 411L0 379L0 379L0 347L0 347L0 316L0 316L0 284L0 284L0 253L0 253L0 221L0 221L0 189L0 189L0 158L0 158L0 126L0 126L0 95L0 95L0 63L0 63L0 32L0 32L0 0L0 0Z" fill="#bde671"></path><path d="M37 0L35 0L35 32L202 32L202 63L66 63L66 95L103 95L103 126L66 126L66 158L214 158L214 189L167 189L167 221L198 221L198 253L95 253L95 284L110 284L110 316L175 316L175 347L63 347L63 379L205 379L205 411L197 411L197 442L118 442L118 474L38 474L38 505L181 505L181 537L41 537L41 568L184 568L184 600L0 600L0 568L0 568L0 537L0 537L0 505L0 505L0 474L0 474L0 442L0 442L0 411L0 411L0 379L0 379L0 347L0 347L0 316L0 316L0 284L0 284L0 253L0 253L0 221L0 221L0 189L0 189L0 158L0 158L0 126L0 126L0 95L0 95L0 63L0 63L0 32L0 32L0 0L0 0Z" fill="#ccf381"></path><path d="M93 0L142 0L142 32L33 32L33 63L67 63L67 95L49 95L49 126L113 126L113 158L185 158L185 189L49 189L49 221L141 221L141 253L139 253L139 284L84 284L84 316L55 316L55 347L39 347L39 379L186 379L186 411L48 411L48 442L74 442L74 474L30 474L30 505L144 505L144 537L125 537L125 568L187 568L187 600L0 600L0 568L0 568L0 537L0 537L0 505L0 505L0 474L0 474L0 442L0 442L0 411L0 411L0 379L0 379L0 347L0 347L0 316L0 316L0 284L0 284L0 253L0 253L0 221L0 221L0 189L0 189L0 158L0 158L0 126L0 126L0 95L0 95L0 63L0 63L0 32L0 32L0 0L0 0Z" fill="#d5f595"></path><path d="M58 0L141 0L141 32L151 32L151 63L106 63L106 95L102 95L102 126L34 126L34 158L61 158L61 189L35 189L35 221L27 221L27 253L172 253L172 284L62 284L62 316L29 316L29 347L156 347L156 379L149 379L149 411L135 411L135 442L25 442L25 474L49 474L49 505L98 505L98 537L38 537L38 568L138 568L138 600L0 600L0 568L0 568L0 537L0 537L0 505L0 505L0 474L0 474L0 442L0 442L0 411L0 411L0 379L0 379L0 347L0 347L0 316L0 316L0 284L0 284L0 253L0 253L0 221L0 221L0 189L0 189L0 158L0 158L0 126L0 126L0 95L0 95L0 63L0 63L0 32L0 32L0 0L0 0Z" fill="#def7a9"></path><path d="M121 0L46 0L46 32L117 32L117 63L121 63L121 95L78 95L78 126L77 126L77 158L141 158L141 189L90 189L90 221L23 221L23 253L101 253L101 284L115 284L115 316L56 316L56 347L87 347L87 379L86 379L86 411L37 411L37 442L147 442L147 474L63 474L63 505L92 505L92 537L74 537L74 568L139 568L139 600L0 600L0 568L0 568L0 537L0 537L0 505L0 505L0 474L0 474L0 442L0 442L0 411L0 411L0 379L0 379L0 347L0 347L0 316L0 316L0 284L0 284L0 253L0 253L0 221L0 221L0 189L0 189L0 158L0 158L0 126L0 126L0 95L0 95L0 63L0 63L0 32L0 32L0 0L0 0Z" fill="#def7a9"></path><path d="M104 0L93 0L93 32L89 32L89 63L110 63L110 95L76 95L76 126L43 126L43 158L113 158L113 189L29 189L29 221L75 221L75 253L17 253L17 284L57 284L57 316L52 316L52 347L78 347L78 379L57 379L57 411L24 411L24 442L54 442L54 474L99 474L99 505L26 505L26 537L116 537L116 568L99 568L99 600L0 600L0 568L0 568L0 537L0 537L0 505L0 505L0 474L0 474L0 442L0 442L0 411L0 411L0 379L0 379L0 347L0 347L0 316L0 316L0 284L0 284L0 253L0 253L0 221L0 221L0 189L0 189L0 158L0 158L0 126L0 126L0 95L0 95L0 63L0 63L0 32L0 32L0 0L0 0Z" fill="#def7a9"></path><path d="M93 0L27 0L27 32L16 32L16 63L23 63L23 95L95 95L95 126L47 126L47 158L28 158L28 189L69 189L69 221L91 221L91 253L66 253L66 284L68 284L68 316L18 316L18 347L42 347L42 379L53 379L53 411L92 411L92 442L105 442L105 474L85 474L85 505L42 505L42 537L88 537L88 568L35 568L35 600L0 600L0 568L0 568L0 537L0 537L0 505L0 505L0 474L0 474L0 442L0 442L0 411L0 411L0 379L0 379L0 347L0 347L0 316L0 316L0 284L0 284L0 253L0 253L0 221L0 221L0 189L0 189L0 158L0 158L0 126L0 126L0 95L0 95L0 63L0 63L0 32L0 32L0 0L0 0Z" fill="#d5f595"></path><path d="M36 0L76 0L76 32L73 32L73 63L11 63L11 95L53 95L53 126L48 126L48 158L68 158L68 189L48 189L48 221L39 221L39 253L26 253L26 284L51 284L51 316L20 316L20 347L31 347L31 379L34 379L34 411L87 411L87 442L24 442L24 474L19 474L19 505L28 505L28 537L26 537L26 568L11 568L11 600L0 600L0 568L0 568L0 537L0 537L0 505L0 505L0 474L0 474L0 442L0 442L0 411L0 411L0 379L0 379L0 347L0 347L0 316L0 316L0 284L0 284L0 253L0 253L0 221L0 221L0 189L0 189L0 158L0 158L0 126L0 126L0 95L0 95L0 63L0 63L0 32L0 32L0 0L0 0Z" fill="#ccf381"></path><path d="M13 0L52 0L52 32L15 32L15 63L50 63L50 95L20 95L20 126L21 126L21 158L51 158L51 189L50 189L50 221L46 221L46 253L45 253L45 284L37 284L37 316L65 316L65 347L49 347L49 379L55 379L55 411L60 411L60 442L51 442L51 474L21 474L21 505L44 505L44 537L42 537L42 568L61 568L61 600L0 600L0 568L0 568L0 537L0 537L0 505L0 505L0 474L0 474L0 442L0 442L0 411L0 411L0 379L0 379L0 347L0 347L0 316L0 316L0 284L0 284L0 253L0 253L0 221L0 221L0 189L0 189L0 158L0 158L0 126L0 126L0 95L0 95L0 63L0 63L0 32L0 32L0 0L0 0Z" fill="#bde671"></path><path d="M16 0L42 0L42 32L28 32L28 63L34 63L34 95L25 95L25 126L34 126L34 158L28 158L28 189L7 189L7 221L41 221L41 253L35 253L35 284L11 284L11 316L42 316L42 347L25 347L25 379L38 379L38 411L17 411L17 442L43 442L43 474L5 474L5 505L4 505L4 537L28 537L28 568L10 568L10 600L0 600L0 568L0 568L0 537L0 537L0 505L0 505L0 474L0 474L0 442L0 442L0 411L0 411L0 379L0 379L0 347L0 347L0 316L0 316L0 284L0 284L0 253L0 253L0 221L0 221L0 189L0 189L0 158L0 158L0 126L0 126L0 95L0 95L0 63L0 63L0 32L0 32L0 0L0 0Z" fill="#afda60"></path></svg>