<svg id="visual" viewBox="0 0 900 600" width="900" height="600" xmlns="http://www.w3.org/2000/svg" xmlns:xlink="http://www.w3.org/1999/xlink" version="1.1"><path d="M0 157L82 133L164 175L245 103L327 175L409 91L491 163L573 145L655 109L736 223L818 187L900 133L900 0L818 0L736 0L655 0L573 0L491 0L409 0L327 0L245 0L164 0L82 0L0 0Z" fill="#4831d4"></path><path d="M0 385L82 373L164 319L245 331L327 373L409 343L491 343L573 331L655 307L736 397L818 265L900 367L900 131L818 185L736 221L655 107L573 143L491 161L409 89L327 173L245 101L164 173L82 131L0 155Z" fill="#412dbe"></path><path d="M0 475L82 475L164 409L245 433L327 469L409 433L491 379L573 415L655 397L736 445L818 343L900 427L900 365L818 263L736 395L655 305L573 329L491 341L409 341L327 371L245 329L164 317L82 371L0 383Z" fill="#3a29a9"></path><path d="M0 535L82 541L164 487L245 547L327 511L409 547L491 487L573 487L655 487L736 499L818 463L900 553L900 425L818 341L736 443L655 395L573 413L491 377L409 431L327 467L245 431L164 407L82 473L0 473Z" fill="#342594"></path><path d="M0 601L82 601L164 601L245 601L327 601L409 601L491 601L573 601L655 601L736 601L818 601L900 601L900 551L818 461L736 497L655 485L573 485L491 485L409 545L327 509L245 545L164 485L82 539L0 533Z" fill="#2e2180"></path></svg>