<svg id="visual" viewBox="0 0 960 540" width="960" height="540" xmlns="http://www.w3.org/2000/svg" xmlns:xlink="http://www.w3.org/1999/xlink" version="1.1"><rect x="0" y="0" width="960" height="540" fill="#070c1a"></rect><path d="M0 337L22.8 342.3C45.7 347.7 91.3 358.3 137 365.5C182.7 372.7 228.3 376.3 274 370.7C319.7 365 365.3 350 411.2 345.2C457 340.3 503 345.7 548.8 349.2C594.7 352.7 640.3 354.3 686 361.7C731.7 369 777.3 382 823 383.7C868.7 385.3 914.3 375.7 937.2 370.8L960 366L960 541L937.2 541C914.3 541 868.7 541 823 541C777.3 541 731.7 541 686 541C640.3 541 594.7 541 548.8 541C503 541 457 541 411.2 541C365.3 541 319.7 541 274 541C228.3 541 182.7 541 137 541C91.3 541 45.7 541 22.8 541L0 541Z" fill="#c9ac0b"></path><path d="M0 358L22.8 368.2C45.7 378.3 91.3 398.7 137 408.8C182.7 419 228.3 419 274 415.2C319.7 411.3 365.3 403.7 411.2 397C457 390.3 503 384.7 548.8 380C594.7 375.3 640.3 371.7 686 376.3C731.7 381 777.3 394 823 401.2C868.7 408.3 914.3 409.7 937.2 410.3L960 411L960 541L937.2 541C914.3 541 868.7 541 823 541C777.3 541 731.7 541 686 541C640.3 541 594.7 541 548.8 541C503 541 457 541 411.2 541C365.3 541 319.7 541 274 541C228.3 541 182.7 541 137 541C91.3 541 45.7 541 22.8 541L0 541Z" fill="#df7919"></path><path d="M0 423L22.8 421.8C45.7 420.7 91.3 418.3 137 416.3C182.7 414.3 228.3 412.7 274 416.3C319.7 420 365.3 429 411.2 434C457 439 503 440 548.8 442.5C594.7 445 640.3 449 686 443.3C731.7 437.7 777.3 422.3 823 423.5C868.7 424.7 914.3 442.3 937.2 451.2L960 460L960 541L937.2 541C914.3 541 868.7 541 823 541C777.3 541 731.7 541 686 541C640.3 541 594.7 541 548.8 541C503 541 457 541 411.2 541C365.3 541 319.7 541 274 541C228.3 541 182.7 541 137 541C91.3 541 45.7 541 22.8 541L0 541Z" fill="#df413f"></path><path d="M0 459L22.8 457.2C45.7 455.3 91.3 451.7 137 448.7C182.7 445.7 228.3 443.3 274 443.3C319.7 443.3 365.3 445.7 411.2 446.2C457 446.7 503 445.3 548.8 449.3C594.7 453.3 640.3 462.7 686 467.7C731.7 472.7 777.3 473.3 823 469.2C868.7 465 914.3 456 937.2 451.5L960 447L960 541L937.2 541C914.3 541 868.7 541 823 541C777.3 541 731.7 541 686 541C640.3 541 594.7 541 548.8 541C503 541 457 541 411.2 541C365.3 541 319.7 541 274 541C228.3 541 182.7 541 137 541C91.3 541 45.7 541 22.8 541L0 541Z" fill="#c50064"></path><path d="M0 513L22.8 508.5C45.7 504 91.3 495 137 490C182.7 485 228.3 484 274 485.3C319.7 486.7 365.3 490.3 411.2 494.7C457 499 503 504 548.8 503.3C594.7 502.7 640.3 496.3 686 491C731.7 485.7 777.3 481.3 823 482.7C868.7 484 914.3 491 937.2 494.5L960 498L960 541L937.2 541C914.3 541 868.7 541 823 541C777.3 541 731.7 541 686 541C640.3 541 594.7 541 548.8 541C503 541 457 541 411.2 541C365.3 541 319.7 541 274 541C228.3 541 182.7 541 137 541C91.3 541 45.7 541 22.8 541L0 541Z" fill="#8c0184"></path></svg>