<svg id="visual" viewBox="0 0 960 540" width="960" height="540" xmlns="http://www.w3.org/2000/svg" xmlns:xlink="http://www.w3.org/1999/xlink" version="1.1"><rect x="0" y="0" width="960" height="540" fill="#070c1a"></rect><path d="M0 201L22.8 195.7C45.7 190.3 91.3 179.7 137 172.5C182.7 165.3 228.3 161.7 274 167.3C319.7 173 365.3 188 411.2 192.8C457 197.7 503 192.3 548.8 188.8C594.7 185.3 640.3 183.7 686 176.3C731.7 169 777.3 156 823 154.3C868.7 152.7 914.3 162.3 937.2 167.2L960 172L960 0L937.2 0C914.3 0 868.7 0 823 0C777.3 0 731.7 0 686 0C640.3 0 594.7 0 548.8 0C503 0 457 0 411.2 0C365.3 0 319.7 0 274 0C228.3 0 182.7 0 137 0C91.3 0 45.7 0 22.8 0L0 0Z" fill="#c9ac0b"></path><path d="M0 180L22.8 169.8C45.7 159.7 91.3 139.3 137 129.2C182.7 119 228.3 119 274 122.8C319.7 126.7 365.3 134.3 411.2 141C457 147.7 503 153.3 548.8 158C594.7 162.7 640.3 166.3 686 161.7C731.7 157 777.3 144 823 136.8C868.7 129.7 914.3 128.3 937.2 127.7L960 127L960 0L937.2 0C914.3 0 868.7 0 823 0C777.3 0 731.7 0 686 0C640.3 0 594.7 0 548.8 0C503 0 457 0 411.2 0C365.3 0 319.7 0 274 0C228.3 0 182.7 0 137 0C91.3 0 45.7 0 22.8 0L0 0Z" fill="#df7919"></path><path d="M0 115L22.8 116.2C45.7 117.3 91.3 119.7 137 121.7C182.7 123.7 228.3 125.3 274 121.7C319.7 118 365.3 109 411.2 104C457 99 503 98 548.8 95.5C594.7 93 640.3 89 686 94.7C731.7 100.3 777.3 115.7 823 114.5C868.7 113.3 914.3 95.7 937.2 86.8L960 78L960 0L937.2 0C914.3 0 868.7 0 823 0C777.3 0 731.7 0 686 0C640.3 0 594.7 0 548.8 0C503 0 457 0 411.2 0C365.3 0 319.7 0 274 0C228.3 0 182.7 0 137 0C91.3 0 45.7 0 22.8 0L0 0Z" fill="#df413f"></path><path d="M0 79L22.8 80.8C45.7 82.7 91.3 86.3 137 89.3C182.7 92.3 228.3 94.7 274 94.7C319.7 94.7 365.3 92.3 411.2 91.8C457 91.3 503 92.7 548.8 88.7C594.7 84.7 640.3 75.3 686 70.3C731.7 65.3 777.3 64.7 823 68.8C868.7 73 914.3 82 937.2 86.5L960 91L960 0L937.2 0C914.3 0 868.7 0 823 0C777.3 0 731.7 0 686 0C640.3 0 594.7 0 548.8 0C503 0 457 0 411.2 0C365.3 0 319.7 0 274 0C228.3 0 182.7 0 137 0C91.3 0 45.7 0 22.8 0L0 0Z" fill="#c50064"></path><path d="M0 25L22.8 29.5C45.7 34 91.3 43 137 48C182.7 53 228.3 54 274 52.7C319.7 51.3 365.3 47.7 411.2 43.3C457 39 503 34 548.8 34.7C594.7 35.3 640.3 41.7 686 47C731.7 52.3 777.3 56.7 823 55.3C868.7 54 914.3 47 937.2 43.5L960 40L960 0L937.2 0C914.3 0 868.7 0 823 0C777.3 0 731.7 0 686 0C640.3 0 594.7 0 548.8 0C503 0 457 0 411.2 0C365.3 0 319.7 0 274 0C228.3 0 182.7 0 137 0C91.3 0 45.7 0 22.8 0L0 0Z" fill="#8c0184"></path></svg>